<svg width="64" height="64" viewBox="0 0 64 64" fill="none" xmlns="http://www.w3.org/2000/svg">
<g clip-path="url(#clip0_3_33)">
<path d="M42.1892 62.3338C41.8558 62.4473 41.5203 62.5548 41.1829 62.656C41.5217 62.5545 41.856 62.4452 42.1892 62.3338ZM43.861 61.7203C43.5012 61.8637 43.1415 62.005 42.7752 62.1352C43.1396 62.0035 43.5016 61.8651 43.861 61.7203Z" fill="#F9EDE0"/>
<path d="M32 64C49.6731 64 64 49.6731 64 32C64 14.3269 49.6731 0 32 0C14.3269 0 0 14.3269 0 32C0 49.6731 14.3269 64 32 64Z" fill="#55565B"/>
<path d="M29.6817 63.9073C29.291 63.8797 28.9015 63.8499 28.5164 63.808C28.9026 63.8499 29.2921 63.8797 29.6817 63.9073ZM24.4491 63.0951C24.1181 63.0146 23.7892 62.9285 23.4615 62.838C23.7892 62.9296 24.1181 63.0157 24.4491 63.0951ZM27.8544 63.7241C27.5052 63.6801 27.1569 63.6304 26.8094 63.5752C27.1548 63.6314 27.5046 63.6778 27.8544 63.7241ZM37.1917 63.574C36.8452 63.6303 36.4966 63.6778 36.1468 63.723C36.4955 63.6778 36.8452 63.6314 37.1917 63.574ZM45.7975 60.8783C45.3138 61.1093 44.8245 61.3282 44.3299 61.5349C44.8247 61.3286 45.314 61.1097 45.7975 60.8783ZM44.3299 61.5349C44.1755 61.6 44.0177 61.6574 43.8621 61.7191C44.0166 61.6574 44.1743 61.6 44.3299 61.5349ZM45.8417 60.8585C45.8273 60.8651 45.8119 60.8717 45.7975 60.8783C45.8119 60.8717 45.8273 60.8662 45.8417 60.8585ZM26.8083 63.574C26.5802 63.5358 26.3525 63.4954 26.1252 63.4527C26.3537 63.4946 26.5799 63.5376 26.8083 63.574ZM30.2455 63.9503C30.0568 63.9404 29.8692 63.9205 29.6817 63.9073C29.8704 63.9205 30.0568 63.9404 30.2455 63.9503ZM20.139 61.7203C19.9835 61.6585 19.8257 61.6 19.6712 61.536C19.8257 61.6 19.9835 61.6574 20.139 61.7203ZM21.8108 62.3338C21.6155 62.2676 21.4179 62.2047 21.2248 62.1352C21.4179 62.2047 21.6144 62.2676 21.8108 62.3338ZM36.1457 63.7241C35.925 63.7528 35.7054 63.7848 35.4836 63.808C35.7054 63.7837 35.925 63.7528 36.1457 63.7241ZM39.5509 63.0951C39.3269 63.1492 39.1018 63.2011 38.8756 63.2507C39.1018 63.2022 39.3269 63.1503 39.5509 63.0951ZM23.4626 62.8392C23.2475 62.7796 23.0312 62.72 22.8171 62.656C23.0312 62.72 23.2464 62.7796 23.4626 62.8392Z" fill="#F9EDE0"/>
<path d="M39.3247 34.2003C42.8899 31.8268 45.2414 27.776 45.2414 23.1724C45.2414 15.8599 39.3125 9.93103 32 9.93103C24.6874 9.93103 18.7586 15.8599 18.7586 23.1724C18.7586 27.776 21.1101 31.8268 24.6753 34.2003C24.6753 34.2003 24.6764 34.2014 24.6775 34.2014C24.6764 34.2014 24.6764 34.2003 24.6764 34.2003C16.1423 36.7724 9.49737 43.6988 7.35779 52.4127L7.35889 52.4138C7.70862 52.834 8.06882 53.2453 8.43917 53.6474C8.52855 53.7457 8.62234 53.8394 8.71393 53.9354C8.99778 54.2381 9.28731 54.5353 9.58234 54.827C9.70482 54.9473 9.82951 55.0632 9.9542 55.1812C10.2274 55.4421 10.5051 55.6981 10.7873 55.9492C10.9274 56.0728 11.0698 56.1953 11.211 56.3167C11.488 56.5539 11.7683 56.7868 12.0541 57.0141C12.2041 57.1343 12.3553 57.2524 12.5065 57.3705C12.7956 57.5929 13.0888 57.8099 13.3859 58.0215C13.5393 58.1308 13.6905 58.2422 13.8461 58.3492C14.1594 58.5655 14.4783 58.773 14.7994 58.9782C14.944 59.0698 15.0852 59.1647 15.2309 59.2552C15.6027 59.483 15.9791 59.7033 16.3597 59.9161C16.4601 59.9724 16.5583 60.0331 16.6599 60.0883C17.1529 60.3585 17.6529 60.6157 18.1594 60.8596C18.1716 60.8651 18.1848 60.8706 18.197 60.8761C18.6814 61.1079 19.1735 61.3274 19.6712 61.5349C19.8256 61.6 19.9834 61.6574 20.139 61.7192C20.4988 61.8626 20.8585 62.0039 21.2248 62.1341C21.419 62.2036 21.6154 62.2665 21.8108 62.3327C22.144 62.4452 22.4794 62.5545 22.8171 62.6549C23.0312 62.7189 23.2463 62.7785 23.4626 62.8381C23.7892 62.9285 24.1181 63.0146 24.4502 63.0952C25.0054 63.2298 25.5644 63.3486 26.1263 63.4516C26.3536 63.4935 26.5799 63.5365 26.8094 63.573C27.1559 63.6292 27.5045 63.6767 27.8543 63.7219C28.075 63.7506 28.2946 63.7826 28.5164 63.8058C28.9026 63.8477 29.2921 63.8775 29.6816 63.9051C29.8703 63.9183 30.0568 63.9382 30.2455 63.9481C30.827 63.9812 31.4108 64 32 64C32.5892 64 33.173 63.9812 33.7545 63.9503C33.9432 63.9404 34.1308 63.9205 34.3183 63.9073C34.709 63.8797 35.0985 63.8499 35.4836 63.808C35.7054 63.7837 35.925 63.7528 36.1457 63.7241C36.4954 63.6789 36.8441 63.6314 37.1906 63.5752C37.419 63.5377 37.6463 63.4957 37.8737 63.4538C38.4357 63.3511 38.9946 63.2323 39.5498 63.0974C39.8808 63.0168 40.2097 62.9308 40.5374 62.8403C40.7525 62.7807 40.9688 62.7211 41.1829 62.6571C41.5216 62.5556 41.856 62.4463 42.1892 62.3349C42.3845 62.2687 42.5821 62.2058 42.7752 62.1363C43.1394 62.0042 43.5014 61.8659 43.861 61.7214C44.0165 61.6596 44.1743 61.6011 44.3288 61.5371C44.8236 61.3309 45.3129 61.1119 45.7964 60.8805C45.8108 60.8739 45.8262 60.8673 45.8405 60.8607C46.3481 60.6168 46.848 60.3586 47.3401 60.0894C47.4417 60.0342 47.5399 59.9735 47.6403 59.9172C48.0209 59.7044 48.3973 59.4841 48.7691 59.2563C48.9148 59.1669 49.0571 59.072 49.2005 58.9793C49.5217 58.7741 49.8405 58.5655 50.1539 58.3503C50.3084 58.2433 50.4607 58.133 50.6141 58.0226C50.9107 57.8103 51.2039 57.5933 51.4935 57.3716C51.6455 57.2543 51.7964 57.1355 51.9459 57.0152C52.2309 56.7876 52.512 56.5551 52.789 56.3178C52.9313 56.1964 53.0736 56.0739 53.2127 55.9503C53.4949 55.6992 53.7726 55.4432 54.0458 55.1823C54.1694 55.0643 54.2952 54.9473 54.4177 54.8281C54.713 54.5367 55.0025 54.2394 55.2861 53.9365C55.3765 53.8394 55.4703 53.7457 55.5608 53.6485C55.9305 53.2458 56.2924 52.8353 56.6411 52.4149L56.6422 52.4138C54.5037 43.6988 47.8588 36.7724 39.3247 34.2003Z" fill="#C6C3BD"/>
</g>
<defs>
<clipPath id="clip0_3_33">
<rect width="64" height="64" fill="white"/>
</clipPath>
</defs>
</svg>
