<svg width="64" height="64" viewBox="0 0 64 64" fill="none" xmlns="http://www.w3.org/2000/svg">
<rect width="64" height="64" fill="#3EB08F" fill-opacity="0.25"/>
<path fill-rule="evenodd" clip-rule="evenodd" d="M22.8333 17.3334C21.3746 17.3334 19.9757 17.9128 18.9442 18.9443C17.9128 19.9757 17.3333 21.3747 17.3333 22.8334V41.1667C17.3333 42.6254 17.9128 44.0243 18.9442 45.0558C19.9757 46.0872 21.3746 46.6667 22.8333 46.6667H41.1667C42.6253 46.6667 44.0243 46.0872 45.0557 45.0558C46.0872 44.0243 46.6667 42.6254 46.6667 41.1667V30.1667C46.6667 29.6805 46.8598 29.2141 47.2036 28.8703C47.5474 28.5265 48.0138 28.3334 48.5 28.3334C48.9862 28.3334 49.4525 28.5265 49.7964 28.8703C50.1402 29.2141 50.3333 29.6805 50.3333 30.1667V41.1667C50.3333 43.5978 49.3676 45.9294 47.6485 47.6485C45.9294 49.3676 43.5978 50.3334 41.1667 50.3334H22.8333C20.4022 50.3334 18.0706 49.3676 16.3515 47.6485C14.6324 45.9294 13.6667 43.5978 13.6667 41.1667V22.8334C13.6667 20.4022 14.6324 18.0706 16.3515 16.3515C18.0706 14.6325 20.4022 13.6667 22.8333 13.6667H33.8333C34.3196 13.6667 34.7859 13.8598 35.1297 14.2037C35.4735 14.5475 35.6667 15.0138 35.6667 15.5C35.6667 15.9863 35.4735 16.4526 35.1297 16.7964C34.7859 17.1402 34.3196 17.3334 33.8333 17.3334H22.8333Z" fill="#3EB08F"/>
<path fill-rule="evenodd" clip-rule="evenodd" d="M41.5626 15.17C42.5317 14.2327 43.8303 13.7137 45.1784 13.725C46.5266 13.7363 47.8163 14.277 48.7695 15.2304C49.7227 16.1839 50.2631 17.4737 50.274 18.8219C50.285 20.1701 49.7657 21.4685 48.8281 22.4374L47.3926 23.8747C47.0488 24.2184 46.5826 24.4115 46.0965 24.4115C45.6103 24.4115 45.1441 24.2184 44.8003 23.8747L40.1253 19.1997C39.7816 18.8559 39.5885 18.3897 39.5885 17.9035C39.5885 17.4174 39.7816 16.9512 40.1253 16.6074L41.5626 15.17ZM37.533 21.792C37.1892 21.4483 36.7229 21.2552 36.2368 21.2552C35.7507 21.2552 35.2844 21.4483 34.9406 21.792L26.7621 29.9724C26.5274 30.207 26.3607 30.501 26.28 30.823L24.7216 37.0564C24.6451 37.3635 24.6493 37.6852 24.734 37.9902C24.8186 38.2951 24.9808 38.573 25.2047 38.7967C25.4286 39.0204 25.7066 39.1824 26.0116 39.2668C26.3167 39.3512 26.6384 39.3552 26.9455 39.2784L33.177 37.72C33.4989 37.6393 33.7929 37.4726 34.0276 37.2379L42.208 29.0594C42.5517 28.7156 42.7447 28.2493 42.7447 27.7632C42.7447 27.2771 42.5517 26.8108 42.208 26.467L37.533 21.792Z" fill="#3EB08F"/>
</svg>
