<svg width="64" height="64" viewBox="0 0 64 64" fill="none" xmlns="http://www.w3.org/2000/svg">
<rect width="64" height="64" fill="#55565B"/>
<path d="M35.7708 32L47.2188 20.5521C48.2604 19.5104 48.2604 17.8229 47.2188 16.7812C46.1771 15.7396 44.4896 15.7396 43.4479 16.7812L32 28.2292L20.5521 16.7812C19.5104 15.7396 17.8229 15.7396 16.7812 16.7812C15.7396 17.8229 15.7396 19.5104 16.7812 20.5521L28.2292 32L16.7812 43.4479C15.7396 44.4896 15.7396 46.1771 16.7812 47.2188C17.3021 47.7396 17.9844 48 18.6667 48C19.349 48 20.0313 47.7396 20.5521 47.2188L32 35.7708L43.4479 47.2188C43.9687 47.7396 44.651 48 45.3333 48C46.0156 48 46.6979 47.7396 47.2188 47.2188C48.2604 46.1771 48.2604 44.4896 47.2188 43.4479L35.7708 32Z" fill="white"/>
</svg>
